<svg width="48" height="45" viewBox="0 0 48 45" fill="none" xmlns="http://www.w3.org/2000/svg">
<rect x="0.4" y="0.4" width="47.2" height="43.8897" rx="7.6" fill="white" stroke="#8FC0AF" stroke-width="0.8"/>
<path d="M31.3931 22.8389C31.3805 20.6924 32.3531 19.0747 34.317 17.8818C33.2186 16.3082 31.5568 15.4426 29.3662 15.2758C27.2921 15.1122 25.0229 16.4844 24.192 16.4844C23.3139 16.4844 21.3059 15.3325 19.7259 15.3325C16.4652 15.3828 13 17.9322 13 23.119C13 24.6518 13.2801 26.2349 13.8403 27.8652C14.5894 30.0117 17.2898 35.271 20.1067 35.186C21.5797 35.1514 22.6215 34.1411 24.5382 34.1411C26.3983 34.1411 27.3614 35.186 29.0043 35.186C31.8464 35.1451 34.2887 30.3642 35 28.2114C31.1886 26.4143 31.3931 22.9491 31.3931 22.8389V22.8389ZM28.0853 13.2395C29.681 11.3448 29.5362 9.62003 29.489 9C28.079 9.08183 26.4486 9.95994 25.5202 11.0395C24.4973 12.1977 23.8961 13.6298 24.0252 15.2443C25.5485 15.3608 26.9396 14.5771 28.0853 13.2395V13.2395Z" fill="black"/>
</svg>
