<svg width="68" height="65" viewBox="0 0 68 65" fill="none" xmlns="http://www.w3.org/2000/svg">
<g filter="url(#filter0_d)">
<rect x="10" y="6" width="48" height="44.6897" rx="8" fill="white"/>
</g>
<path d="M34 18C27.95 18 23 22.939 23 29.022C23 34.522 27.026 39.087 32.284 39.912V32.212H29.49V29.022H32.284V26.591C32.284 23.83 33.923 22.312 36.442 22.312C37.641 22.312 38.895 22.521 38.895 22.521V25.238H37.509C36.145 25.238 35.716 26.085 35.716 26.954V29.022H38.774L38.279 32.212H35.716V39.912C38.3081 39.5026 40.6684 38.18 42.3709 36.183C44.0734 34.186 45.0059 31.6462 45 29.022C45 22.939 40.05 18 34 18V18Z" fill="#438CDA"/>
<defs>
<filter id="filter0_d" x="0" y="0" width="68" height="64.6897" filterUnits="userSpaceOnUse" color-interpolation-filters="sRGB">
<feFlood flood-opacity="0" result="BackgroundImageFix"/>
<feColorMatrix in="SourceAlpha" type="matrix" values="0 0 0 0 0 0 0 0 0 0 0 0 0 0 0 0 0 0 127 0"/>
<feOffset dy="4"/>
<feGaussianBlur stdDeviation="5"/>
<feColorMatrix type="matrix" values="0 0 0 0 0 0 0 0 0 0 0 0 0 0 0 0 0 0 0.2 0"/>
<feBlend mode="normal" in2="BackgroundImageFix" result="effect1_dropShadow"/>
<feBlend mode="normal" in="SourceGraphic" in2="effect1_dropShadow" result="shape"/>
</filter>
</defs>
</svg>
