<svg width="48" height="45" viewBox="0 0 48 45" fill="none" xmlns="http://www.w3.org/2000/svg">
<rect x="0.4" y="0.4" width="47.2" height="43.8897" rx="7.6" fill="white" stroke="#8FC0AF" stroke-width="0.8"/>
<path d="M24 12C17.95 12 13 16.939 13 23.022C13 28.522 17.026 33.087 22.284 33.912V26.212H19.49V23.022H22.284V20.591C22.284 17.83 23.923 16.312 26.442 16.312C27.641 16.312 28.895 16.521 28.895 16.521V19.238H27.509C26.145 19.238 25.716 20.085 25.716 20.954V23.022H28.774L28.279 26.212H25.716V33.912C28.3081 33.5026 30.6684 32.18 32.3709 30.183C34.0734 28.186 35.0059 25.6462 35 23.022C35 16.939 30.05 12 24 12V12Z" fill="#438CDA"/>
</svg>
