<svg width="48" height="45" viewBox="0 0 48 45" fill="none" xmlns="http://www.w3.org/2000/svg">
<rect x="0.4" y="0.4" width="47.2" height="43.8897" rx="7.6" fill="white" stroke="#8FC0AF" stroke-width="0.8"/>
<path d="M33.5973 30.7109H14.3758C13.6305 30.7109 13.0029 30.1029 13.0029 29.3379V15.4515C13.0029 14.7061 13.6108 14.0785 14.3758 14.0785H33.5973C34.3426 14.0785 34.9703 14.6865 34.9703 15.4515V29.3379C34.9703 30.1029 34.3622 30.7109 33.5973 30.7109Z" fill="#E3E3E3"/>
<path opacity="0.1" d="M15.7487 30.7109L23.9669 24.1011L24.0258 23.748L15.5526 17.6482L15.533 30.4168L15.7487 30.7109V30.7109Z" fill="#231F20"/>
<path d="M14.3758 30.7109C13.6108 30.7109 13.0029 30.1029 13.0029 29.338V15.4318C13.0029 14.6669 13.6108 14.5296 14.3758 14.5296C15.1407 14.5296 15.7488 14.6865 15.7488 15.4318V30.7109H14.3758Z" fill="#D54B3D"/>
<path d="M14.3758 14.7257C15.3564 14.7257 15.5526 15.02 15.5526 15.4318V30.5148H14.3758C13.7285 30.5148 13.199 29.9853 13.199 29.338V15.4318C13.199 15.0003 13.3951 14.7257 14.3758 14.7257ZM14.3758 14.5296C13.6108 14.5296 13.0029 14.6865 13.0029 15.4318V29.338C13.0029 30.103 13.6109 30.711 14.3758 30.711H15.7488V15.4318C15.7488 14.6669 15.1407 14.5296 14.3758 14.5296V14.5296Z" fill="#D72B27"/>
<path d="M33.5973 30.7109H32.2243V15.3926C32.2243 14.6276 32.8323 14.5296 33.5973 14.5296C34.3622 14.5296 34.9703 14.6276 34.9703 15.3926V29.3576C34.9703 30.1029 34.3622 30.7109 33.5973 30.7109Z" fill="#D54B3D"/>
<path d="M33.5973 14.7257C34.4799 14.7257 34.7741 14.9022 34.7741 15.3926V29.3576C34.7741 30.0049 34.2445 30.5344 33.5973 30.5344H32.4204V15.3926C32.4204 14.8826 32.7147 14.7257 33.5973 14.7257ZM33.5973 14.5296C32.8323 14.5296 32.2243 14.6276 32.2243 15.3926V30.7306H33.5973C34.3622 30.7306 34.9703 30.1225 34.9703 29.3576V15.3926C34.9703 14.6276 34.3622 14.5296 33.5973 14.5296Z" fill="#D72B27"/>
<path d="M27.7132 30.7109L13.1177 16.0022L13.8855 16.3144L24.0454 23.6304L34.9703 15.6194V29.3576C34.9703 30.1029 34.3622 30.7109 33.5973 30.7109H27.7132Z" fill="url(#paint0_linear)"/>
<path d="M23.9669 24.101L13.5912 16.5694C12.9832 16.1183 12.8067 15.2552 13.2578 14.6472C13.709 14.0392 14.5916 13.9019 15.2192 14.353L23.9866 20.7275L32.8126 14.2745C33.4207 13.8234 34.2837 13.9607 34.7348 14.5883C35.1859 15.1964 35.0487 16.0594 34.4209 16.5105L23.9668 24.101L23.9669 24.101Z" fill="#D54B3D"/>
<path d="M33.5973 14.1961C33.9699 14.1961 34.323 14.3726 34.5584 14.6864C34.931 15.2161 34.8133 15.9417 34.3034 16.3341L23.9669 23.8657L13.7089 16.4125C13.1794 16.0202 13.042 15.2748 13.4147 14.765C13.6305 14.4707 14.0031 14.2747 14.3954 14.2747C14.6503 14.2747 14.9053 14.353 15.1014 14.51L23.8493 20.8648L23.9669 20.9433L24.0846 20.8648L32.8912 14.4119C33.107 14.2747 33.3423 14.1961 33.5973 14.1961V14.1961ZM33.5973 14C33.3227 14 33.0284 14.0785 32.7931 14.255L23.9669 20.7079L15.1995 14.3335C14.9643 14.1569 14.6701 14.0785 14.3758 14.0785C13.9443 14.0785 13.5128 14.2746 13.2382 14.6473C12.8067 15.2553 12.9833 16.1183 13.5913 16.5694L23.967 24.1207L34.4014 16.5106C35.0095 16.0595 35.1468 15.2161 34.7153 14.5884C34.4407 14.1961 34.0288 14 33.5973 14Z" fill="#D72B27"/>
<defs>
<linearGradient id="paint0_linear" x1="13.1186" y1="23.1648" x2="34.9773" y2="23.1648" gradientUnits="userSpaceOnUse">
<stop stop-opacity="0.1"/>
<stop offset="1" stop-opacity="0.2"/>
</linearGradient>
</defs>
</svg>
