<svg width="68" height="65" viewBox="0 0 68 65" fill="none" xmlns="http://www.w3.org/2000/svg">
<g filter="url(#filter0_d)">
<rect x="10" y="6" width="48" height="44.6897" rx="8" fill="white"/>
</g>
<path d="M43.5973 36.7109H24.3757C23.6305 36.7109 23.0029 36.1029 23.0029 35.3379V21.4515C23.0028 20.7061 23.6108 20.0785 24.3757 20.0785H43.5973C44.3426 20.0785 44.9703 20.6865 44.9703 21.4515V35.3379C44.9703 36.1029 44.3622 36.7109 43.5973 36.7109Z" fill="#E3E3E3"/>
<path opacity="0.1" d="M25.7488 36.7109L33.9669 30.1011L34.0258 29.748L25.5526 23.6482L25.533 36.4168L25.7488 36.7109V36.7109Z" fill="#231F20"/>
<path d="M24.3758 36.7109C23.6108 36.7109 23.0029 36.1029 23.0029 35.338V21.4318C23.0029 20.6669 23.6108 20.5296 24.3758 20.5296C25.1407 20.5296 25.7488 20.6865 25.7488 21.4318V36.7109H24.3758Z" fill="#D54B3D"/>
<path d="M24.3757 20.7257C25.3564 20.7257 25.5526 21.02 25.5526 21.4318V36.5148H24.3757C23.7285 36.5148 23.199 35.9853 23.199 35.338V21.4318C23.199 21.0003 23.3951 20.7257 24.3757 20.7257ZM24.3757 20.5296C23.6108 20.5296 23.0029 20.6865 23.0029 21.4318V35.338C23.0029 36.103 23.6109 36.711 24.3758 36.711H25.7487V21.4318C25.7487 20.6669 25.1407 20.5296 24.3757 20.5296V20.5296Z" fill="#D72B27"/>
<path d="M43.5973 36.7109H42.2243V21.3926C42.2243 20.6276 42.8323 20.5296 43.5973 20.5296C44.3623 20.5296 44.9703 20.6276 44.9703 21.3926V35.3576C44.9703 36.1029 44.3623 36.7109 43.5973 36.7109Z" fill="#D54B3D"/>
<path d="M43.5973 20.7257C44.4799 20.7257 44.7741 20.9022 44.7741 21.3926V35.3576C44.7741 36.0049 44.2445 36.5344 43.5973 36.5344H42.4204V21.3926C42.4204 20.8826 42.7147 20.7257 43.5973 20.7257ZM43.5973 20.5296C42.8323 20.5296 42.2243 20.6276 42.2243 21.3926V36.7306H43.5973C44.3623 36.7306 44.9703 36.1225 44.9703 35.3576V21.3926C44.9703 20.6276 44.3623 20.5296 43.5973 20.5296Z" fill="#D72B27"/>
<path d="M37.7132 36.7109L23.1177 22.0022L23.8855 22.3144L34.0454 29.6304L44.9703 21.6194V35.3576C44.9703 36.1029 44.3622 36.7109 43.5973 36.7109H37.7132Z" fill="url(#paint0_linear)"/>
<path d="M33.967 30.101L23.5912 22.5694C22.9832 22.1183 22.8067 21.2552 23.2578 20.6472C23.7091 20.0392 24.5916 19.9019 25.2192 20.353L33.9866 26.7275L42.8127 20.2745C43.4207 19.8234 44.2837 19.9607 44.7348 20.5883C45.1859 21.1964 45.0487 22.0594 44.421 22.5105L33.9669 30.101L33.967 30.101Z" fill="#D54B3D"/>
<path d="M43.5973 20.1961C43.9699 20.1961 44.323 20.3726 44.5584 20.6864C44.931 21.2161 44.8133 21.9417 44.3034 22.3341L33.9669 29.8657L23.7089 22.4125C23.1794 22.0202 23.042 21.2748 23.4147 20.765C23.6305 20.4707 24.0031 20.2747 24.3954 20.2747C24.6503 20.2747 24.9053 20.353 25.1014 20.51L33.8493 26.8648L33.9669 26.9433L34.0846 26.8648L42.8912 20.4119C43.107 20.2747 43.3423 20.1961 43.5973 20.1961V20.1961ZM43.5973 20C43.3227 20 43.0284 20.0785 42.7931 20.255L33.9669 26.7079L25.1995 20.3335C24.9643 20.1569 24.6701 20.0785 24.3758 20.0785C23.9443 20.0785 23.5128 20.2746 23.2382 20.6473C22.8067 21.2553 22.9833 22.1183 23.5913 22.5694L33.967 30.1207L44.4014 22.5106C45.0095 22.0595 45.1468 21.2161 44.7153 20.5884C44.4407 20.1961 44.0288 20 43.5973 20Z" fill="#D72B27"/>
<defs>
<filter id="filter0_d" x="0" y="0" width="68" height="64.6897" filterUnits="userSpaceOnUse" color-interpolation-filters="sRGB">
<feFlood flood-opacity="0" result="BackgroundImageFix"/>
<feColorMatrix in="SourceAlpha" type="matrix" values="0 0 0 0 0 0 0 0 0 0 0 0 0 0 0 0 0 0 127 0"/>
<feOffset dy="4"/>
<feGaussianBlur stdDeviation="5"/>
<feColorMatrix type="matrix" values="0 0 0 0 0 0 0 0 0 0 0 0 0 0 0 0 0 0 0.2 0"/>
<feBlend mode="normal" in2="BackgroundImageFix" result="effect1_dropShadow"/>
<feBlend mode="normal" in="SourceGraphic" in2="effect1_dropShadow" result="shape"/>
</filter>
<linearGradient id="paint0_linear" x1="23.1186" y1="29.1648" x2="44.9773" y2="29.1648" gradientUnits="userSpaceOnUse">
<stop stop-opacity="0.1"/>
<stop offset="1" stop-opacity="0.2"/>
</linearGradient>
</defs>
</svg>
