<svg width="53" height="68" viewBox="0 0 53 68" fill="none" xmlns="http://www.w3.org/2000/svg">
<path d="M42.3687 3.78124H36.2413L36.8522 3.16774C37.5737 2.44307 37.5737 1.26818 36.8522 0.543504C36.1306 -0.181168 34.9608 -0.181168 34.2393 0.543504L31.6787 3.11528L30.3723 4.4274C29.6507 5.15207 29.6507 6.32696 30.3723 7.05164L31.6787 8.36375L34.2393 11.3067C34.9608 12.0314 36.1306 12.0314 36.8522 11.3067C37.5737 10.582 37.5737 9.03596 36.8522 8.31129L36.0368 7.4924H42.3405C43.2004 7.4924 44.0316 7.82574 44.6403 8.43585C45.2495 9.04631 45.5851 10.2299 45.5851 11.0942C45.5851 11.9571 45.2506 13.1395 44.6431 13.7496C44.0357 14.3597 43.228 14.6958 42.3687 14.6958H34.6156H32.9204C31.8159 14.6958 30.9204 15.5951 30.9204 16.7045V18.4071V46.1249C29.8316 46.7705 29.101 47.9609 29.101 49.3228C29.101 51.3725 30.7555 53.0341 32.7963 53.0341C34.837 53.0341 36.4915 51.3725 36.4915 49.3228C36.4915 47.9375 35.7357 46.7296 34.6156 46.092V18.4073H42.3687C46.186 18.4073 49.2806 14.9281 49.2806 11.0943C49.2804 7.26042 46.186 3.78124 42.3687 3.78124Z" fill="#3A6A59"/>
<path d="M24.2446 46.1208V18.4073V16.7047C24.2446 15.5953 23.3491 14.6959 22.2445 14.6959H20.5493H12.8225C11.9704 14.6959 11.1469 14.3681 10.5398 13.7675C9.91065 13.1452 9.56862 11.9384 9.58017 11.0508C9.59101 10.2117 9.9293 9.03543 10.5194 8.44138C11.1272 7.82948 11.9359 7.4924 12.7964 7.4924H19.1283L18.313 8.31129C17.5914 9.03596 17.5914 10.582 18.313 11.3067C19.0345 12.0314 20.2043 12.0314 20.9258 11.3067L23.4865 8.36375L24.7929 7.05164C25.5144 6.32696 25.5144 5.15207 24.7929 4.4274L23.4865 3.11528L20.9258 0.543504C20.2043 -0.181168 19.0345 -0.181168 18.313 0.543504C17.5914 1.26818 17.5914 2.44307 18.313 3.16774L18.9238 3.78124H12.7962C8.97893 3.78124 5.8844 7.26042 5.8844 11.0942C5.8844 14.9281 8.97893 18.4071 12.7962 18.4071H20.5493V46.0958C19.4332 46.7344 18.6804 47.9402 18.6804 49.3226C18.6804 51.3723 20.3349 53.034 22.3756 53.034C24.4164 53.034 26.0709 51.3723 26.0709 49.3226C26.0709 47.958 25.3373 46.7655 24.2446 46.1208Z" fill="#3FB88C"/>
<path d="M5.9508 58.7339H0.225467C0.161327 58.7339 0.107137 58.7555 0.0643176 58.7983C0.0216761 58.8411 0 58.8975 0 58.966V60.4489C0 60.5176 0.0216761 60.574 0.0644953 60.6167C0.107137 60.6595 0.161505 60.6811 0.225822 60.6811H1.9926V67.2363C1.9926 67.3004 2.01392 67.3555 2.05568 67.4002C2.09832 67.4457 2.15464 67.4687 2.22322 67.4687H3.95287C4.01683 67.4687 4.07191 67.446 4.1165 67.4011C4.1611 67.3563 4.18366 67.3008 4.18366 67.2363V60.6811H5.95044C6.01476 60.6811 6.06895 60.6595 6.11177 60.6167C6.15459 60.574 6.17626 60.5175 6.17626 60.4489V58.966C6.17626 58.8975 6.15459 58.8411 6.11177 58.7983C6.06913 58.7557 6.01494 58.7339 5.9508 58.7339Z" fill="#3FB88C"/>
<path d="M15.2726 59.2346C14.5907 58.8384 13.8367 58.6377 13.0311 58.6377C12.2255 58.6377 11.4713 58.8384 10.7896 59.2346C10.1078 59.6306 9.5599 60.1807 9.16102 60.8695C8.76197 61.5583 8.55978 62.3215 8.55978 63.1378C8.55978 63.748 8.67988 64.3382 8.91654 64.8917C9.15303 65.4453 9.47461 65.9276 9.87171 66.3255C10.2692 66.7238 10.748 67.0445 11.2952 67.2786C11.843 67.5131 12.4272 67.6319 13.0313 67.6319C13.6352 67.6319 14.2194 67.5131 14.7673 67.2786C15.3145 67.0445 15.7935 66.7238 16.1908 66.3255C16.5879 65.9276 16.9095 65.4453 17.146 64.8917C17.3827 64.3382 17.5028 63.748 17.5028 63.1378C17.5028 62.3217 17.3004 61.5585 16.9015 60.8695C16.5023 60.1805 15.9543 59.6306 15.2726 59.2346ZM13.0311 65.4915C12.3938 65.4915 11.8487 65.2618 11.4109 64.8091C10.9728 64.3558 10.7507 63.7935 10.7507 63.1378C10.7507 62.4741 10.9728 61.9088 11.4109 61.4575C11.8487 61.0066 12.394 60.778 13.0311 60.778C13.6682 60.778 14.2133 61.0066 14.6513 61.4575C15.0894 61.9088 15.3117 62.4741 15.3117 63.1378C15.3117 63.7935 15.0896 64.3558 14.6513 64.8091C14.2135 65.2618 13.6684 65.4915 13.0311 65.4915Z" fill="#3FB88C"/>
<path d="M27.1914 58.7339H25.4618C25.3977 58.7339 25.3426 58.7567 25.298 58.8019C25.2536 58.8468 25.231 58.9025 25.231 58.9671V64.0821C25.231 65.0304 24.8305 65.4913 24.0068 65.4913C23.1952 65.4913 22.8006 65.0304 22.8006 64.0821V58.9671C22.8006 58.9029 22.7793 58.8476 22.7374 58.8028C22.6947 58.7571 22.6384 58.7339 22.5698 58.7339H20.8402C20.776 58.7339 20.7209 58.7566 20.6765 58.8015C20.6321 58.8463 20.6094 58.9016 20.6094 58.9662V64.0539C20.6094 65.1703 20.9254 66.0552 21.5489 66.684C22.1724 67.3129 22.9992 67.6318 24.0067 67.6318C25.0178 67.6318 25.8488 67.3129 26.4763 66.6842C27.1038 66.0554 27.4219 65.1705 27.4219 64.0541V58.9664C27.4219 58.9023 27.4006 58.8474 27.3586 58.8026C27.3163 58.7571 27.2598 58.7339 27.1914 58.7339Z" fill="#3FB88C"/>
<path d="M36.2117 58.7339H30.4864C30.4222 58.7339 30.368 58.7555 30.3252 58.7983C30.2826 58.8411 30.2609 58.8975 30.2609 58.966V60.4489C30.2609 60.5176 30.2826 60.574 30.3254 60.6167C30.368 60.6595 30.4224 60.6811 30.4867 60.6811H32.2535V67.2363C32.2535 67.3004 32.2748 67.3555 32.3166 67.4002C32.3592 67.4457 32.4155 67.4687 32.4841 67.4687H34.2138C34.2777 67.4687 34.3328 67.446 34.3774 67.4011C34.422 67.3563 34.4445 67.3008 34.4445 67.2363V60.6811H36.2113C36.2756 60.6811 36.3298 60.6595 36.3727 60.6167C36.4155 60.574 36.4372 60.5175 36.4372 60.4489V58.966C36.4372 58.8975 36.4155 58.8411 36.3727 58.7983C36.3298 58.7557 36.2756 58.7339 36.2117 58.7339Z" fill="#3FB88C"/>
<path d="M43.981 65.5218H41.4934V58.9664C41.4934 58.9025 41.4721 58.8475 41.43 58.8027C41.3872 58.7574 41.3307 58.7344 41.2621 58.7344H39.5275C39.4633 58.7344 39.4091 58.7561 39.3665 58.7988C39.3238 58.8416 39.3022 58.898 39.3022 58.9665V67.237C39.3022 67.3057 39.3238 67.3621 39.3665 67.4047C39.4089 67.4476 39.4631 67.4693 39.5275 67.4693H43.9808C44.045 67.4693 44.0991 67.4476 44.142 67.4046C44.1844 67.3616 44.2061 67.305 44.2061 67.2365V65.7548C44.2061 65.6863 44.1844 65.6297 44.1418 65.5867C44.0991 65.5435 44.0451 65.5218 43.981 65.5218Z" fill="#3FB88C"/>
<path d="M52.7986 58.7339H50.968C50.8511 58.7339 50.7631 58.7842 50.7063 58.8843L49.3537 61.3906L48.0064 58.8834C47.9499 58.7842 47.8619 58.7339 47.745 58.7339H45.9265C45.7462 58.7339 45.7194 58.8265 45.7194 58.8818C45.7194 58.9214 45.7327 58.9675 45.7601 59.0226L48.264 63.4629V67.2365C48.264 67.3006 48.2853 67.3557 48.3274 67.4003C48.3701 67.4458 48.4266 67.4689 48.4953 67.4689H50.2299C50.2941 67.4689 50.3483 67.4471 50.3909 67.4044C50.4336 67.3616 50.4552 67.3052 50.4552 67.2367V63.4872L52.9592 59.0228C52.9867 58.9677 53 58.9216 53 58.882C52.9999 58.8267 52.9737 58.7339 52.7986 58.7339Z" fill="#3FB88C"/>
</svg>
