<svg width="59" height="76" viewBox="0 0 59 76" fill="none" xmlns="http://www.w3.org/2000/svg">
<path d="M47.1652 4.20931H40.3441L41.0241 3.52635C41.8273 2.71964 41.8273 1.41174 41.0241 0.605033C40.2209 -0.201678 38.9187 -0.201678 38.1155 0.605033L35.265 3.46795L33.8106 4.92861C33.0074 5.73532 33.0074 7.04322 33.8106 7.84993L35.265 9.31059L38.1155 12.5867C38.9187 13.3934 40.2209 13.3934 41.0241 12.5867C41.8273 11.78 41.8273 10.0589 41.0241 9.25219L40.1165 8.34059H47.1338C48.0911 8.34059 49.0163 8.71167 49.6939 9.39085C50.3721 10.0704 50.7458 11.3881 50.7458 12.3501C50.7458 13.3108 50.3733 14.627 49.6971 15.3062C49.0209 15.9854 48.1217 16.3594 47.1652 16.3594H38.5344H36.6473C35.4177 16.3594 34.4208 17.3606 34.4208 18.5956V20.4909V51.3466C33.2088 52.0653 32.3955 53.3904 32.3955 54.9065C32.3955 57.1882 34.2373 59.038 36.5091 59.038C38.7808 59.038 40.6226 57.1882 40.6226 54.9065C40.6226 53.3644 39.7812 52.0198 38.5344 51.31V20.4911H47.1652C51.4147 20.4911 54.8595 16.6181 54.8595 12.3503C54.8593 8.08235 51.4147 4.20931 47.1652 4.20931Z" fill="#30693B"/>
<path d="M26.9892 51.342V20.4911V18.5958C26.9892 17.3608 25.9924 16.3596 24.7627 16.3596H22.8756H14.2741C13.3255 16.3596 12.4088 15.9947 11.7329 15.3261C11.0326 14.6334 10.6518 13.2899 10.6647 12.3018C10.6767 11.3678 11.0533 10.0583 11.7102 9.39701C12.3868 8.71584 13.2871 8.34059 14.245 8.34059H21.2937L20.3861 9.25219C19.5829 10.0589 19.5829 11.78 20.3861 12.5867C21.1893 13.3934 22.4915 13.3934 23.2947 12.5867L26.1453 9.31059L27.5996 7.84993C28.4028 7.04322 28.4028 5.73532 27.5996 4.92861L26.1453 3.46795L23.2947 0.605033C22.4915 -0.201678 21.1893 -0.201678 20.3861 0.605033C19.5829 1.41174 19.5829 2.71964 20.3861 3.52635L21.0661 4.20931H14.2448C9.99536 4.20931 6.55051 8.08235 6.55051 12.3501C6.55051 16.6181 9.99536 20.4909 14.2448 20.4909H22.8756V51.3142C21.6331 52.0251 20.7951 53.3674 20.7951 54.9063C20.7951 57.188 22.6369 59.0378 24.9087 59.0378C27.1805 59.0378 29.0223 57.188 29.0223 54.9063C29.0223 53.3873 28.2056 52.0597 26.9892 51.342Z" fill="#3BAF61"/>
<path d="M6.62447 65.383H0.250991C0.17959 65.383 0.119265 65.4071 0.0715988 65.4548C0.02413 65.5024 0 65.5652 0 65.6415V67.2923C0 67.3687 0.02413 67.4315 0.0717966 67.479C0.119265 67.5267 0.179788 67.5507 0.251387 67.5507H2.21818V74.848C2.21818 74.9194 2.24191 74.9807 2.28839 75.0304C2.33586 75.0811 2.39856 75.1067 2.47491 75.1067H4.40036C4.47156 75.1067 4.53288 75.0815 4.58252 75.0314C4.63217 74.9815 4.65729 74.9198 4.65729 74.848V67.5507H6.62408C6.69568 67.5507 6.756 67.5267 6.80367 67.479C6.85133 67.4315 6.87546 67.3685 6.87546 67.2923V65.6415C6.87546 65.5652 6.85133 65.5024 6.80367 65.4548C6.7562 65.4073 6.69587 65.383 6.62447 65.383Z" fill="#3BAF61"/>
<path d="M17.0016 65.9402C16.2424 65.4993 15.403 65.2758 14.5063 65.2758C13.6095 65.2758 12.7699 65.4993 12.011 65.9402C11.2521 66.381 10.6421 66.9935 10.1981 67.7603C9.75385 68.527 9.52877 69.3767 9.52877 70.2853C9.52877 70.9647 9.66247 71.6216 9.92593 72.2378C10.1892 72.854 10.5472 73.3909 10.9892 73.8339C11.4317 74.2773 11.9647 74.6343 12.5739 74.8949C13.1837 75.1559 13.834 75.2882 14.5065 75.2882C15.1787 75.2882 15.8291 75.1559 16.439 74.8949C17.0482 74.6343 17.5815 74.2773 18.0237 73.8339C18.4658 73.3909 18.8238 72.854 19.087 72.2378C19.3505 71.6216 19.4842 70.9647 19.4842 70.2853C19.4842 69.3769 19.2589 68.5272 18.8149 67.7603C18.3704 66.9933 17.7605 66.381 17.0016 65.9402ZM14.5063 72.9054C13.7968 72.9054 13.19 72.6498 12.7027 72.1458C12.2149 71.6413 11.9677 71.0153 11.9677 70.2853C11.9677 69.5465 12.2149 68.9172 12.7027 68.4148C13.19 67.9128 13.797 67.6584 14.5063 67.6584C15.2155 67.6584 15.8223 67.9128 16.3099 68.4148C16.7976 68.9172 17.0451 69.5465 17.0451 70.2853C17.0451 71.0153 16.7978 71.6413 16.3099 72.1458C15.8225 72.6498 15.2157 72.9054 14.5063 72.9054Z" fill="#3BAF61"/>
<path d="M30.2697 65.383H28.3442C28.2728 65.383 28.2115 65.4085 28.1619 65.4587C28.1124 65.5088 28.0873 65.5708 28.0873 65.6427V71.3367C28.0873 72.3923 27.6415 72.9055 26.7245 72.9055C25.8211 72.9055 25.3818 72.3923 25.3818 71.3367V65.6427C25.3818 65.5712 25.358 65.5096 25.3114 65.4597C25.2639 65.4089 25.2012 65.383 25.1248 65.383H23.1994C23.128 65.383 23.0667 65.4083 23.0172 65.4583C22.9678 65.5082 22.9425 65.5698 22.9425 65.6417V71.3053C22.9425 72.5481 23.2943 73.5332 23.9884 74.2332C24.6824 74.9333 25.6029 75.2882 26.7243 75.2882C27.8499 75.2882 28.775 74.9333 29.4736 74.2334C30.1722 73.5334 30.5262 72.5483 30.5262 71.3055V65.6419C30.5262 65.5706 30.5025 65.5094 30.4558 65.4595C30.4087 65.4089 30.3458 65.383 30.2697 65.383Z" fill="#3BAF61"/>
<path d="M40.3111 65.383H33.9376C33.8662 65.383 33.8059 65.4071 33.7582 65.4548C33.7108 65.5024 33.6866 65.5652 33.6866 65.6415V67.2923C33.6866 67.3687 33.7108 67.4315 33.7584 67.479C33.8059 67.5267 33.8664 67.5507 33.938 67.5507H35.9048V74.848C35.9048 74.9194 35.9286 74.9807 35.975 75.0304C36.0225 75.0811 36.0852 75.1067 36.1616 75.1067H38.087C38.1582 75.1067 38.2195 75.0815 38.2692 75.0314C38.3188 74.9815 38.3439 74.9198 38.3439 74.848V67.5507H40.3107C40.3823 67.5507 40.4426 67.5267 40.4903 67.479C40.538 67.4315 40.5621 67.3685 40.5621 67.2923V65.6415C40.5621 65.5652 40.538 65.5024 40.4903 65.4548C40.4426 65.4073 40.3823 65.383 40.3111 65.383Z" fill="#3BAF61"/>
<path d="M48.96 72.939H46.1907V65.6415C46.1907 65.5704 46.167 65.5092 46.1201 65.4593C46.0725 65.4089 46.0096 65.3832 45.9332 65.3832H44.0022C43.9308 65.3832 43.8705 65.4075 43.823 65.455C43.7756 65.5026 43.7514 65.5654 43.7514 65.6417V74.8484C43.7514 74.9249 43.7756 74.9877 43.823 75.0352C43.8703 75.0828 43.9306 75.1071 44.0022 75.1071H48.9598C49.0312 75.1071 49.0915 75.0828 49.1392 75.035C49.1864 74.9871 49.2106 74.9241 49.2106 74.8478V73.1985C49.2106 73.1222 49.1864 73.0592 49.139 73.0113C49.0915 72.9633 49.0314 72.939 48.96 72.939Z" fill="#3BAF61"/>
<path d="M58.7757 65.383H56.7379C56.6078 65.383 56.5099 65.4391 56.4466 65.5505L54.9408 68.3405L53.441 65.5495C53.3781 65.4391 53.2802 65.383 53.1501 65.383H51.1257C50.925 65.383 50.8951 65.4861 50.8951 65.5477C50.8951 65.5918 50.9099 65.6431 50.9404 65.7045L53.7278 70.6474V74.8482C53.7278 74.9195 53.7515 74.9809 53.7984 75.0306C53.8459 75.0812 53.9088 75.1069 53.9853 75.1069H55.9163C55.9877 75.1069 56.048 75.0826 56.0955 75.0352C56.143 74.9875 56.1671 74.9247 56.1671 74.8484V70.6744L58.9545 65.7047C58.9852 65.6433 59 65.592 59 65.5479C58.9998 65.4863 58.9707 65.383 58.7757 65.383Z" fill="#3BAF61"/>
</svg>
