<svg width="30" height="30" viewBox="0 0 30 30" fill="none" xmlns="http://www.w3.org/2000/svg">
<path d="M19.5 30V22.3734C19.5 21.1598 19.0259 19.9959 18.182 19.1377C17.3381 18.2796 16.1935 17.7974 15 17.7974C13.8065 17.7974 12.6619 18.2796 11.818 19.1377C10.9741 19.9959 10.5 21.1598 10.5 22.3734V30H3C2.20435 30 1.44129 29.6786 0.87868 29.1065C0.31607 28.5344 1.38884e-10 27.7584 1.38884e-10 26.9494V10.3722C-4.98411e-06 9.84539 0.134146 9.32757 0.38939 8.86914C0.644633 8.41072 1.01227 8.02732 1.4565 7.75628L13.4565 0.434745C13.9227 0.15027 14.4563 0 15 0C15.5437 0 16.0773 0.15027 16.5435 0.434745L28.5435 7.75628C28.9877 8.02732 29.3554 8.41072 29.6106 8.86914C29.8659 9.32757 30 9.84539 30 10.3722V26.9494C30 27.7584 29.6839 28.5344 29.1213 29.1065C28.5587 29.6786 27.7957 30 27 30H19.5Z" fill="#3FB88C"/>
</svg>
