<svg width="30" height="30" viewBox="0 0 30 30" fill="none" xmlns="http://www.w3.org/2000/svg">
<path d="M29.6699 27.8488L23.0582 21.341C25.1959 18.7617 26.2579 15.4581 26.0235 12.1164C25.7892 8.77468 24.2766 5.65164 21.7999 3.39597C19.3232 1.14031 16.0728 -0.0746169 12.7237 0.00355096C9.3747 0.0817189 6.1845 1.44697 3.81573 3.81573C1.44697 6.1845 0.0817189 9.3747 0.00355096 12.7237C-0.0746169 16.0728 1.14031 19.3232 3.39597 21.7999C5.65164 24.2766 8.77468 25.7892 12.1164 26.0235C15.4581 26.2579 18.7617 25.1959 21.341 23.0582L28.1699 29.7841L29.6699 27.8488ZM2.39155 13.0506C2.39155 10.9424 3.01669 8.88162 4.18792 7.12875C5.35915 5.37588 7.02387 4.00968 8.97155 3.20292C10.9192 2.39617 13.0624 2.18508 15.1301 2.59636C17.1977 3.00764 19.097 4.02282 20.5877 5.51351C22.0784 7.00421 23.0935 8.90347 23.5048 10.9711C23.9161 13.0388 23.705 15.1819 22.8983 17.1296C22.0915 19.0773 20.7253 20.742 18.9724 21.9133C17.2196 23.0845 15.1588 23.7096 13.0506 23.7096C10.2236 23.7096 7.51247 22.5866 5.51351 20.5877C3.51455 18.5887 2.39155 15.8775 2.39155 13.0506Z" fill="#3FB88C"/>
</svg>
