<svg width="95" height="116" viewBox="0 0 95 116" fill="none" xmlns="http://www.w3.org/2000/svg">
<path d="M79.9318 8.20454H66.6366L67.962 6.87337C69.5275 5.30097 69.5275 2.75169 67.962 1.1793C66.3964 -0.393099 63.8582 -0.393099 62.2926 1.1793L56.7365 6.75953L53.9018 9.60657C52.3363 11.179 52.3363 13.7283 53.9018 15.3006L56.7365 18.1477L62.2926 24.5333C63.8582 26.1057 66.3964 26.1057 67.962 24.5333C69.5275 22.9609 69.5275 19.6062 67.962 18.0338L66.1928 16.257H79.8705C81.7364 16.257 83.5398 16.9803 84.8606 18.3041C86.1826 19.6287 86.9108 22.197 86.9108 24.0721C86.9108 25.9446 86.1849 28.5102 84.8668 29.834C83.5487 31.1578 81.7962 31.8869 79.9318 31.8869H63.1091H59.4309C57.0342 31.8869 55.0912 33.8383 55.0912 36.2455V39.9397V100.082C52.7287 101.483 51.1435 104.066 51.1435 107.021C51.1435 111.468 54.7334 115.074 59.1614 115.074C63.5895 115.074 67.1794 111.468 67.1794 107.021C67.1794 104.015 65.5394 101.394 63.1091 100.011V39.9401H79.9318C88.2146 39.9401 94.9291 32.391 94.9291 24.0725C94.9287 15.7537 88.2146 8.20454 79.9318 8.20454Z" fill="#3E896E"/>
<path d="M40.6058 100.073V39.9401V36.2459C40.6058 33.8387 38.6628 31.8873 36.2661 31.8873H32.5879H15.8222C13.9733 31.8873 12.1864 31.176 10.8691 29.8727C9.50403 28.5225 8.76192 25.9039 8.78698 23.978C8.81049 22.1575 9.54451 19.6051 10.8248 18.3161C12.1437 16.9884 13.8985 16.257 15.7656 16.257H29.5045L27.7354 18.0338C26.1698 19.6062 26.1698 22.9609 27.7354 24.5333C29.301 26.1057 31.8392 26.1057 33.4048 24.5333L38.9608 18.1477L41.7955 15.3006C43.3611 13.7282 43.3611 11.179 41.7955 9.60657L38.9608 6.75953L33.4048 1.1793C31.8392 -0.393099 29.301 -0.393099 27.7354 1.1793C26.1698 2.75169 26.1698 5.30097 27.7354 6.87337L29.0608 8.20454H15.7652C7.4824 8.20454 0.767883 15.7537 0.767883 24.0721C0.767883 32.391 7.4824 39.9397 15.7652 39.9397H32.5879V100.019C30.1661 101.404 28.5327 104.021 28.5327 107.02C28.5327 111.468 32.1226 115.073 36.5506 115.073C40.9786 115.073 44.5685 111.468 44.5685 107.02C44.5685 104.059 42.9767 101.472 40.6058 100.073Z" fill="#3FB88C"/>
</svg>
