<svg width="31" height="29" viewBox="0 0 31 29" fill="none" xmlns="http://www.w3.org/2000/svg">
<path fill-rule="evenodd" clip-rule="evenodd" d="M26.3642 1.88316H3.76632C3.26688 1.88316 2.78789 2.08156 2.43473 2.43473C2.08156 2.78789 1.88316 3.26688 1.88316 3.76632V18.8316C1.88316 19.331 2.08156 19.81 2.43473 20.1632C2.78789 20.5164 3.26688 20.7148 3.76632 20.7148H8.47422C9.05892 20.7148 9.6356 20.8509 10.1586 21.1124C10.6815 21.3739 11.1365 21.7535 11.4873 22.2213L15.0653 26.9913L18.6433 22.2213C18.9941 21.7535 19.449 21.3739 19.972 21.1124C20.495 20.8509 21.0716 20.7148 21.6563 20.7148H26.3642C26.8637 20.7148 27.3427 20.5164 27.6958 20.1632C28.049 19.81 28.2474 19.331 28.2474 18.8316V3.76632C28.2474 3.26688 28.049 2.78789 27.6958 2.43473C27.3427 2.08156 26.8637 1.88316 26.3642 1.88316ZM3.76632 0C2.76743 0 1.80945 0.396808 1.10313 1.10313C0.396808 1.80945 0 2.76743 0 3.76632L0 18.8316C0 19.8305 0.396808 20.7885 1.10313 21.4948C1.80945 22.2011 2.76743 22.5979 3.76632 22.5979H8.47422C8.76657 22.5979 9.05491 22.666 9.3164 22.7967C9.57788 22.9275 9.80534 23.1173 9.98075 23.3512L13.5588 28.1212C13.7342 28.3551 13.9616 28.5449 14.2231 28.6757C14.4846 28.8064 14.7729 28.8745 15.0653 28.8745C15.3576 28.8745 15.646 28.8064 15.9075 28.6757C16.1689 28.5449 16.3964 28.3551 16.5718 28.1212L20.1498 23.3512C20.3252 23.1173 20.5527 22.9275 20.8142 22.7967C21.0757 22.666 21.364 22.5979 21.6563 22.5979H26.3642C27.3631 22.5979 28.3211 22.2011 29.0274 21.4948C29.7338 20.7885 30.1306 19.8305 30.1306 18.8316V3.76632C30.1306 2.76743 29.7338 1.80945 29.0274 1.10313C28.3211 0.396808 27.3631 0 26.3642 0L3.76632 0Z" fill="black"/>
<path d="M9.41586 11.299C9.41586 11.7984 9.21745 12.2774 8.86429 12.6306C8.51113 12.9837 8.03214 13.1821 7.5327 13.1821C7.03325 13.1821 6.55426 12.9837 6.2011 12.6306C5.84794 12.2774 5.64954 11.7984 5.64954 11.299C5.64954 10.7995 5.84794 10.3205 6.2011 9.96737C6.55426 9.61421 7.03325 9.4158 7.5327 9.4158C8.03214 9.4158 8.51113 9.61421 8.86429 9.96737C9.21745 10.3205 9.41586 10.7995 9.41586 11.299ZM16.9485 11.299C16.9485 11.7984 16.7501 12.2774 16.3969 12.6306C16.0438 12.9837 15.5648 13.1821 15.0653 13.1821C14.5659 13.1821 14.0869 12.9837 13.7337 12.6306C13.3806 12.2774 13.1822 11.7984 13.1822 11.299C13.1822 10.7995 13.3806 10.3205 13.7337 9.96737C14.0869 9.61421 14.5659 9.4158 15.0653 9.4158C15.5648 9.4158 16.0438 9.61421 16.3969 9.96737C16.7501 10.3205 16.9485 10.7995 16.9485 11.299ZM24.4811 11.299C24.4811 11.7984 24.2827 12.2774 23.9296 12.6306C23.5764 12.9837 23.0974 13.1821 22.598 13.1821C22.0985 13.1821 21.6195 12.9837 21.2664 12.6306C20.9132 12.2774 20.7148 11.7984 20.7148 11.299C20.7148 10.7995 20.9132 10.3205 21.2664 9.96737C21.6195 9.61421 22.0985 9.4158 22.598 9.4158C23.0974 9.4158 23.5764 9.61421 23.9296 9.96737C24.2827 10.3205 24.4811 10.7995 24.4811 11.299Z" fill="black"/>
</svg>
