<svg width="30" height="30" viewBox="0 0 30 30" fill="none" xmlns="http://www.w3.org/2000/svg">
<path d="M20.5 29V22.3734C20.5 20.8999 19.9245 19.4835 18.895 18.4366C17.8649 17.3891 16.4641 16.7974 15 16.7974C13.5359 16.7974 12.1351 17.3891 11.105 18.4366C10.0755 19.4835 9.5 20.8999 9.5 22.3734V29H3C2.47502 29 1.96809 28.7881 1.59168 28.4053C1.21471 28.022 1 27.4986 1 26.9494V10.3722C0.999997 10.0149 1.09102 9.66464 1.26309 9.3556C1.4351 9.04666 1.68172 8.7903 1.97734 8.60993L13.9773 1.2884L13.4583 0.437681L13.9773 1.2884C14.2875 1.09918 14.6409 1 15 1C15.3591 1 15.7125 1.09918 16.0227 1.2884L16.5426 0.436215L16.0227 1.2884L28.0227 8.60993C28.3183 8.7903 28.5649 9.04667 28.7369 9.3556C28.909 9.66464 29 10.0149 29 10.3722V26.9494C29 27.4986 28.7853 28.022 28.4083 28.4053C28.0319 28.7881 27.525 29 27 29H20.5Z" fill="white" stroke="black" stroke-width="2"/>
</svg>
