<svg width="30" height="27" viewBox="0 0 30 27" fill="none" xmlns="http://www.w3.org/2000/svg">
<path d="M21.9094 2.16C22.6893 2.15934 23.4615 2.31566 24.1808 2.61981C24.9 2.92395 25.5518 3.36979 26.0979 3.9312C27.2231 5.08289 27.8538 6.63461 27.8538 8.2512C27.8538 9.86779 27.2231 11.4195 26.0979 12.5712L15 23.9004L3.90214 12.5712C2.77691 11.4195 2.14618 9.86779 2.14618 8.2512C2.14618 6.63461 2.77691 5.08289 3.90214 3.9312C4.44857 3.3702 5.10039 2.92459 5.81954 2.6204C6.53868 2.31621 7.31074 2.15954 8.09062 2.15954C8.8705 2.15954 9.64256 2.31621 10.3617 2.6204C11.0809 2.92459 11.7327 3.3702 12.2791 3.9312L15 6.7392L17.7102 3.9528C18.2546 3.3847 18.9071 2.93313 19.6286 2.62509C20.3501 2.31705 21.1258 2.15887 21.9094 2.16ZM21.9094 2.89748e-06C20.8442 -0.000907241 19.7895 0.212607 18.8072 0.628025C17.825 1.04344 16.9348 1.6524 16.1891 2.4192L15 3.6288L13.8109 2.4192C13.0642 1.65379 12.1739 1.04588 11.1918 0.630928C10.2097 0.215972 9.15548 0.00226522 8.09062 0.00226522C7.02576 0.00226522 5.97155 0.215972 4.98945 0.630928C4.00734 1.04588 3.11699 1.65379 2.3703 2.4192C0.851175 3.97832 0 6.07647 0 8.262C0 10.4475 0.851175 12.5457 2.3703 14.1048L15 27L27.6297 14.1048C29.1488 12.5457 30 10.4475 30 8.262C30 6.07647 29.1488 3.97832 27.6297 2.4192C26.8832 1.65338 25.9929 1.04506 25.0108 0.629709C24.0287 0.214361 22.9744 0.000298186 21.9094 2.89748e-06Z" fill="black"/>
</svg>
